# xmcd CD database file
#
# Track frame offsets:
#	150
#	14669
#	28465
#	41683
#	55854
#	69075
#	82746
#	95448
#	108246
#	121942
#	136839
#	150688
#	162454
#	177155
#	191199
#
# Disc length: 2703 seconds
#
# Revision: 0
# Processed by: cddbd v1.4PL0 Copyright (c) Steve Scherf et al.
# Submitted via: CDex 1.50beta10
#
DISCID=c30a8d0f
DTITLE=Tito Puente - Crazy Mambos
DYEAR=2001
DGENRE=Salsa
TTITLE0=A Burujon Punao
TTITLE1=Babaratiri
TTITLE2=Mambo Macoco
TTITLE3=Cuban Manbo
TTITLE4=Cuban Cutie
TTITLE5=Baila Simon
TTITLE6=Abaniquito
TTITLE7=Mambolero
TTITLE8=Quiero Mi Tambo
TTITLE9=Lo Dicen Todos
TTITLE10=Mambo  Con Puente
TTITLE11=Mambo La Roca
TTITLE12=Oye Lo Que Tiene El Mambo
TTITLE13=El Timbal
TTITLE14=Drinking Mambo
EXTD=YEAR: 2001
EXTT0=
EXTT1=
EXTT2=
EXTT3=
EXTT4=
EXTT5=
EXTT6=
EXTT7=
EXTT8=
EXTT9=
EXTT10=
EXTT11=
EXTT12=
EXTT13=
EXTT14=
PLAYORDER=
